<svg width="26" height="25" viewBox="0 0 26 25" fill="none" xmlns="http://www.w3.org/2000/svg">
<path fill-rule="evenodd" clip-rule="evenodd" d="M20.1768 0.398295C22.2753 1.05881 24.0202 2.57599 25.006 4.59714C26.1586 7.04681 26.3155 9.8695 25.4418 12.4389C24.6377 14.8043 23.3194 16.9486 21.5877 18.7076C20.4523 19.8888 19.2288 20.9763 17.9286 21.9602L17.8597 22.0194C17.4278 22.3137 16.8468 22.1981 16.5521 21.7592C16.4022 21.5472 16.3421 21.2816 16.3853 21.0231C16.4285 20.7646 16.5715 20.5352 16.7815 20.3872C18.0016 19.4567 19.1519 18.4326 20.2227 17.3238C21.7648 15.7878 22.9424 13.9057 23.6639 11.8239C24.3579 9.74943 24.2174 7.47482 23.2739 5.50787C22.5146 3.96053 21.1768 2.79888 19.5689 2.29073C17.5179 1.62945 15.2835 2.03033 13.5697 3.36705C13.229 3.62729 12.7634 3.62729 12.4226 3.36705C10.7096 2.02847 8.47431 1.62742 6.4235 2.29073C4.80475 2.78766 3.45363 3.9458 2.68406 5.49605C1.76183 7.46153 1.62991 9.72309 2.317 11.7884C3.04157 13.8652 4.21887 15.7428 5.7582 17.2765C8.03271 19.5253 10.5408 21.5086 13.2371 23.1903C13.58 23.4356 13.7308 23.8806 13.6106 24.2927C13.4905 24.7049 13.1267 24.9904 12.7094 25C12.5213 25.0011 12.3373 24.9434 12.1818 24.8344C9.37309 23.0828 6.761 21.0162 4.39319 18.6721C2.65191 16.9189 1.3287 14.7731 0.527577 12.4034C-0.315886 9.83756 -0.142744 7.03207 1.00934 4.59714C1.99511 2.57599 3.74004 1.05881 5.83849 0.398295C8.25118 -0.370124 10.8689 -0.0159938 13.0077 1.36817C15.1464 -0.0159938 17.7641 -0.370124 20.1768 0.398295ZM19.2362 9.45833C19.1883 8.36528 18.4823 7.41992 17.4697 7.09279C17.0933 6.85042 16.926 6.37422 17.0648 5.9395C17.2035 5.50478 17.6122 5.224 18.0547 5.25949C19.7651 5.81622 20.9825 7.37954 21.1404 9.22178C21.1727 9.47935 21.1035 9.73955 20.9483 9.94408C20.793 10.1486 20.5647 10.2804 20.3145 10.3099C19.7891 10.3799 19.3075 9.99955 19.2362 9.45833Z" fill="#161616"/>
</svg>
