    <svg
      width="23"
      height="24"
      viewBox="0 0 23 24"
      fill="none"
      xmlns="http://www.w3.org/2000/svg"
    >
      <path
        d="M9.82897 22.0767H4.86593C3.25776 22.071 1.95387 20.8018 1.94206 19.2306V9.58551C1.94521 9.05955 2.18611 8.56183 2.6002 8.22571L3.47413 7.59324C3.79318 7.26113 3.82562 6.75436 3.55141 6.38599C3.2772 6.01763 2.77374 5.89164 2.35205 6.08586L1.45654 6.73941C0.553224 7.42229 0.0171662 8.46975 0 9.58551V19.2412C0.00593355 21.8643 2.18101 23.9894 4.86593 23.9952H9.82897C10.3653 23.9952 10.8 23.5705 10.8 23.0465C10.8 22.5226 10.3653 22.0978 9.82897 22.0978V22.0767Z"
        fill="#161616"
      />
      <path
        d="M22.8 9.60342C22.789 8.49767 22.284 7.45504 21.4238 6.76199L14.1648 0.963372C12.5697 -0.321124 10.2973 -0.321124 8.70219 0.963372L6.40157 2.63666C5.96934 2.94761 5.87057 3.5507 6.18097 3.98371C6.49136 4.41671 7.09338 4.51566 7.52562 4.20471L9.85774 2.45775C10.7731 1.70281 12.0939 1.70281 13.0093 2.45775L20.2683 8.25638C20.6861 8.58815 20.9329 9.09044 20.9406 9.62447V19.2643C20.9406 20.8336 19.6707 22.1057 18.1042 22.1057H15.9507C15.7302 22.1057 15.5515 21.9267 15.5515 21.7058V17.3595C15.5515 15.9745 14.4338 14.8501 13.0513 14.8443H9.89976C9.23388 14.8443 8.59527 15.1093 8.12442 15.581C7.65357 16.0527 7.38905 16.6924 7.38905 17.3595V19.0222C7.38905 19.5453 7.81235 19.9694 8.33451 19.9694C8.85667 19.9694 9.27996 19.5453 9.27996 19.0222V17.3595C9.27715 17.1958 9.34009 17.0378 9.45467 16.921C9.56924 16.8043 9.72583 16.7385 9.88926 16.7386H13.0408C13.3773 16.7386 13.6501 17.0118 13.6501 17.3489V21.7058C13.6559 22.9746 14.6842 24 15.9507 24H18.0517C20.6683 24 22.7895 21.875 22.7895 19.2538L22.8 9.60342Z"
        fill="#161616"
      />
    </svg>