  <svg
      width="26"
      height="26"
      viewBox="0 0 26 26"
      fill="none"
      xmlns="http://www.w3.org/2000/svg"
    >
      <path
        fill-rule="evenodd"
        clip-rule="evenodd"
        d="M13.0088 0C15.1118 0 17.2069 0.518786 19.0684 1.50024C25.4062 4.84429 27.8435 12.7211 24.5018 19.0611C22.2224 23.3843 17.7347 26 12.9939 26C12.0677 26 11.1324 25.9004 10.2016 25.6942C9.67731 25.5774 9.34645 25.0575 9.46208 24.533C9.5777 24.0085 10.0963 23.6798 10.6241 23.7932C15.4656 24.8697 20.4639 22.546 22.7799 18.1529C25.6214 12.7635 23.5493 6.0651 18.1605 3.22266C16.5784 2.38779 14.797 1.94688 13.0076 1.94688H12.995C6.90337 1.94688 1.94623 6.90455 1.94623 12.9983C1.94395 14.7734 2.37669 16.5405 3.19754 18.1106L3.44711 18.5984C3.75278 19.171 3.82033 19.8822 3.62227 20.5258C3.34866 21.2473 3.12084 21.9493 2.93308 22.6479C3.66349 22.428 4.55531 22.104 5.19986 21.8692L5.46431 21.7741C5.96461 21.5875 6.52672 21.852 6.70989 22.3582C6.89307 22.8632 6.6309 23.4221 6.12603 23.6042L5.86501 23.6992L5.82058 23.7153L5.8205 23.7154C4.86078 24.0632 3.56857 24.5314 2.69152 24.7277C2.61596 24.7437 2.53468 24.754 2.46027 24.7517C1.86266 24.7517 1.4986 24.5101 1.29826 24.3062C0.990298 23.9936 0.843759 23.5549 0.860931 23.003C0.863221 22.94 0.871235 22.8747 0.886118 22.8117C1.11737 21.8268 1.41847 20.8442 1.78252 19.8925C1.80885 19.7998 1.79283 19.6314 1.71841 19.4906L1.46769 19.0038C0.507177 17.1646 -0.00227435 15.0837 1.53169e-05 12.9971C1.53169e-05 5.83033 5.82952 0 12.9939 0H13.0088ZM5.72453 12.9989C5.72453 12.1457 6.41716 11.4528 7.27006 11.4528C8.12296 11.4528 8.81559 12.1457 8.81559 12.9989C8.81559 13.8509 8.12296 14.5438 7.27006 14.5438C6.41716 14.5438 5.72453 13.8509 5.72453 12.9989ZM14.5399 12.9984C14.5399 12.1464 13.8473 11.4523 12.9944 11.4523C12.1414 11.4523 11.4488 12.1464 11.4488 12.9984C11.4488 13.8504 12.1414 14.5444 12.9944 14.5444C13.8473 14.5444 14.5399 13.8504 14.5399 12.9984ZM18.7185 11.4523C19.5714 11.4523 20.2641 12.1464 20.2641 12.9984C20.2641 13.8504 19.5714 14.5444 18.7185 14.5444C17.8656 14.5444 17.173 13.8504 17.173 12.9984C17.173 12.1464 17.8656 11.4523 18.7185 11.4523Z"
        fill="white"
      />
    </svg>