  <svg
      width="19"
      height="24"
      viewBox="0 0 19 24"
      fill="none"
      xmlns="http://www.w3.org/2000/svg"
    >
      <path
        d="M13.687 0H5.49731C2.11907 0 0 2.38305 0 6.20653V21.9876C0 23.099 0.870825 24 1.94504 24C2.27026 23.9998 2.59035 23.9161 2.87662 23.7564L9.54095 20.0177L17.3006 23.7776C17.5111 23.869 17.7479 23.8701 17.9592 23.7807C18.1704 23.6913 18.3386 23.5187 18.4267 23.301C18.5568 22.8997 18.3991 22.4589 18.048 22.2418L10.3394 18.5137C9.83582 18.2273 9.2256 18.2273 8.72198 18.5137L2.04741 22.2418C1.97087 22.2852 1.87827 22.2852 1.80172 22.2418C1.72895 22.1934 1.68617 22.1089 1.68912 22.0194V6.20653C1.69935 3.37864 3.07112 1.76876 5.52802 1.76876H13.7177C16.8707 1.76876 17.3314 4.41659 17.3314 6.0053V6.72551H8.46606C8.24066 6.73378 8.02769 6.83444 7.87407 7.00529C7.72045 7.17614 7.6388 7.40318 7.64709 7.63636C7.65788 8.09961 8.0183 8.4725 8.46606 8.48367H17.3006V17.7511C17.3006 18.2366 17.6811 18.6302 18.1503 18.6302C18.6156 18.6302 18.9944 18.2431 19 17.7617V17.7617V6.0053C19 2.29832 16.9731 0 13.687 0Z"
        fill="#161616"
      />
    </svg>