  <svg
      width="23"
      height="26"
      viewBox="0 0 23 26"
      fill="none"
      xmlns="http://www.w3.org/2000/svg"
    >
      <path
        fill-rule="evenodd"
        clip-rule="evenodd"
        d="M6.56507 0H16.4238C20.5298 0 22.9889 2.53687 23 6.77263V19.2274C23 23.4631 20.552 26 16.4349 26H12.7852C12.3171 25.9468 11.9629 25.5388 11.9629 25.053C11.9629 24.5672 12.3171 24.1592 12.7852 24.106H16.4238C19.5617 24.106 21.1418 22.4645 21.1418 19.2274V6.77263C21.1418 3.53554 19.5617 1.89404 16.4238 1.89404H6.56507C3.42719 1.89404 1.83599 3.53554 1.83599 6.77263V19.2274C1.83599 22.4645 3.42719 24.106 6.56507 24.106C7.03313 24.1592 7.38741 24.5672 7.38741 25.053C7.38741 25.5388 7.03313 25.9468 6.56507 26C2.45912 26 0 23.4631 0 19.2274V6.77263C0 2.52539 2.45912 0 6.56507 0ZM6.88776 8.44857H10.3928C10.8609 8.39532 11.2152 7.98733 11.2152 7.50155C11.2152 7.01576 10.8609 6.60777 10.3928 6.55453H6.88776C6.4197 6.60777 6.06542 7.01576 6.06542 7.50155C6.06542 7.98733 6.4197 8.39532 6.88776 8.44857ZM16.09 13.947H6.88776H6.87663C6.40857 13.8938 6.05429 13.4858 6.05429 13C6.05429 12.5142 6.40857 12.1062 6.87663 12.053H16.09C16.4421 12.0129 16.7854 12.1842 16.9736 12.4937C17.1618 12.8033 17.1618 13.1967 16.9736 13.5063C16.7854 13.8158 16.4421 13.9871 16.09 13.947ZM16.09 19.4455H6.88776H6.87663C6.37271 19.4455 5.9642 19.024 5.9642 18.5042C5.9642 17.9843 6.37271 17.5629 6.87663 17.5629H16.09C16.5939 17.5629 17.0024 17.9843 17.0024 18.5042C17.0024 19.024 16.5939 19.4455 16.09 19.4455Z"
        fill="#161616"
      />
    </svg>