<svg width="26" height="26" viewBox="0 0 26 26" fill="none" xmlns="http://www.w3.org/2000/svg">
<rect width="26" height="26" fill="#1E1E1E"/>
<g clip-path="url(#clip0_0_1)">
<rect width="1440" height="1100" transform="translate(-459 -283)" fill="white"/>
<rect x="-459" y="-283" width="1440" height="1100" fill="white"/>
<rect x="-26" y="-26" width="78" height="128" rx="39" stroke="#52C3FF" stroke-width="2"/>
<circle cx="13" cy="13" r="30" fill="#52C3FF"/>
<path fill-rule="evenodd" clip-rule="evenodd" d="M25.9879 4.02748V7.9441C26.0008 9.00901 25.5987 10.0355 24.8701 10.7978C24.1416 11.56 23.1462 11.9955 22.103 12.0085H20.5104C19.9709 11.9496 19.5617 11.4848 19.5617 10.9308C19.5617 10.3769 19.9709 9.91212 20.5104 9.85315H22.0548C22.5432 9.84991 23.0103 9.64785 23.3523 9.29178C23.6943 8.93571 23.883 8.45506 23.8766 7.95642V4.02748C23.8636 3.00589 23.0555 2.18096 22.0548 2.16769H18.206C17.1999 2.16769 16.3842 3.00035 16.3842 4.02748V9.90242C16.3646 10.4981 15.8822 10.9687 15.2984 10.9616C15.0178 10.9552 14.7515 10.8344 14.5588 10.6261C14.3661 10.4178 14.2631 10.1395 14.2729 9.85315V4.02748C14.2696 2.96046 14.6826 1.93602 15.4206 1.18036C16.1585 0.42471 17.1608 -5.02007e-06 18.206 0H22.0548C24.2101 0.0522455 25.9434 1.82705 25.9879 4.02748ZM7.79397 0H3.94524C1.77183 0.0134472 0.0131727 1.80876 0 4.02748V7.95642C0.0132308 10.1731 1.77378 11.9649 3.94524 11.9716H7.79397C8.8392 11.9749 9.84272 11.5533 10.5829 10.7999C11.3232 10.0466 11.7392 9.02344 11.7392 7.95642V4.02748C11.7326 1.80597 9.97012 0.00676262 7.79397 0ZM9.61578 7.95642C9.62222 8.45506 9.43351 8.93571 9.0915 9.29178C8.74949 9.64785 8.28246 9.84991 7.79397 9.85315H3.94524C3.44949 9.86331 2.97109 9.66674 2.62047 9.30881C2.26984 8.95088 2.07729 8.46251 2.08724 7.95642V4.02748C2.08714 3.52776 2.28404 3.04903 2.63357 2.69917C2.98309 2.34931 3.45583 2.15776 3.94524 2.16769H7.79397C8.79739 2.17441 9.6092 3.00314 9.61578 4.02748V7.95642ZM18.206 14.0284H22.0548C24.2262 14.0351 25.9868 15.8269 26 18.0436V21.9725C25.9868 24.1912 24.2282 25.9866 22.0548 26H18.206C16.0346 25.9865 14.2794 24.1893 14.2729 21.9725V18.0436C14.2729 15.8261 16.0338 14.0284 18.206 14.0284ZM23.3465 23.2912C23.6889 22.9417 23.8798 22.4668 23.8766 21.9725V18.0436C23.8766 17.5503 23.6846 17.0773 23.343 16.7285C23.0013 16.3797 22.5379 16.1838 22.0548 16.1838H18.206C17.1999 16.1838 16.3842 17.0165 16.3842 18.0436V21.9725C16.381 22.4668 16.5719 22.9417 16.9142 23.2912C17.2566 23.6407 17.7219 23.8356 18.206 23.8323H22.0548C22.5389 23.8356 23.0042 23.6407 23.3465 23.2912ZM0 21.9602V18.0436C-4.91757e-06 16.9766 0.416038 15.9534 1.15626 15.2001C1.89649 14.4467 2.90001 14.0252 3.94524 14.0284H5.52575C5.92986 13.9843 6.32321 14.1795 6.5388 14.5312C6.75439 14.8829 6.75439 15.3294 6.5388 15.6811C6.32321 16.0328 5.92986 16.228 5.52575 16.1838H3.94524C2.93712 16.1838 2.118 17.0145 2.11137 18.0436V21.9233C2.137 22.9441 2.94508 23.7636 3.94524 23.7831H7.8181C8.30336 23.7863 8.76985 23.5919 9.11412 23.2427C9.45839 22.8936 9.65198 22.4187 9.65197 21.9233V16.0976C9.57328 15.6626 9.7615 15.2224 10.1275 14.9854C10.4935 14.7485 10.9638 14.7625 11.3157 15.0207C11.6676 15.2789 11.8305 15.7295 11.7271 16.1592V21.9602C11.7271 24.1845 9.9608 25.9877 7.7819 25.9877H3.94524C1.78518 25.942 0.0448157 24.1653 0 21.9602Z" fill="white"/>
</g>
<defs>
<clipPath id="clip0_0_1">
<rect width="1440" height="1100" fill="white" transform="translate(-459 -283)"/>
</clipPath>
</defs>
</svg>
