<svg width="26" height="26" viewBox="0 0 26 26" fill="none" xmlns="http://www.w3.org/2000/svg">
<path d="M20.1513 25.8945C19.9914 25.8976 19.8334 25.8572 19.6937 25.7773L13.0126 22.2605L7.13223 25.4256C6.16188 25.9546 4.95673 25.5831 4.43231 24.5933C4.22826 24.1938 4.15601 23.7372 4.22639 23.2921L5.37042 16.5399L0.58836 11.6985C0.211793 11.3155 0 10.7944 0 10.2508C0 9.70713 0.211793 9.18599 0.58836 8.80303C0.894839 8.48183 1.29773 8.27541 1.73239 8.2169L8.28771 7.22049L11.205 1.14821C11.5381 0.445848 12.2333 0 12.9954 0C13.7575 0 14.4527 0.445848 14.7858 1.14821L17.7145 7.24393L24.2927 8.25207C24.8213 8.32996 25.2971 8.62216 25.6133 9.06302C25.9296 9.50389 26.0597 10.0565 25.9745 10.5966C25.9124 11.0404 25.7117 11.4517 25.4025 11.7688L20.6433 16.5516L21.3068 20.1856C21.3966 20.7387 21.0338 21.2624 20.4945 21.3579C19.9645 21.4581 19.4544 21.1027 19.3505 20.5607L18.6755 16.9268C18.5629 16.258 18.7765 15.5751 19.2476 15.098L24.0182 10.2801L17.44 9.26021C16.7783 9.1561 16.2137 8.71447 15.9413 8.08796L13.0126 2.01568L10.0495 8.18174C9.77707 8.80825 9.21247 9.24988 8.55084 9.35399L1.99552 10.3504L6.73182 15.1566C7.20076 15.6253 7.41466 16.3004 7.30384 16.9619L6.15981 23.7141L12.0401 20.5607C12.6247 20.2334 13.3317 20.2334 13.9164 20.5607L20.5861 24.0775C20.9903 24.2953 21.198 24.7671 21.0898 25.2218C20.9815 25.6765 20.5852 25.9973 20.1285 26L20.1513 25.8945Z" fill="#161616"/>
</svg>
