<svg width="26" height="26" viewBox="0 0 26 26" fill="none" xmlns="http://www.w3.org/2000/svg">
<path fill-rule="evenodd" clip-rule="evenodd" d="M0.314224 10.1627C1.64162 4.21951 6.91213 -0.00446813 12.9948 1.98017e-05C13.9463 -0.00118145 14.8947 0.106031 15.8219 0.319587C19.1998 1.06312 22.1407 3.12743 23.9904 6.05325C25.8402 8.97906 26.4452 12.5237 25.671 15.8985C25.6036 16.2728 25.3329 16.5781 24.9697 16.6894C24.6064 16.8008 24.2114 16.6996 23.9462 16.4273C23.681 16.155 23.5899 15.7571 23.7103 15.3963C24.9268 9.95659 21.8611 4.47154 16.5941 2.66424C11.3272 0.856946 5.54545 3.30611 3.17345 8.34931C0.801449 13.3925 2.5987 19.4149 7.34528 22.3286C12.0919 25.2423 18.2679 24.1144 21.6812 19.7104C22.0479 19.3706 22.6072 19.3486 22.9993 19.6587C23.3914 19.9688 23.4997 20.5186 23.2543 20.9545C19.5321 25.7711 12.9689 27.3549 7.46365 24.765C1.95838 22.1752 -1.01317 16.1059 0.314224 10.1627ZM13.1719 16.143C12.9481 15.6713 13.118 15.1065 13.5648 14.8371L14.3286 14.4604L15.6053 10.3745L11.6155 11.63L9.79159 17.4621C9.62755 17.9912 9.06645 18.2874 8.53765 18.124C8.28117 18.0453 8.06688 17.867 7.94265 17.6289C7.81841 17.3909 7.79458 17.1129 7.87648 16.8572L9.85999 10.5115C9.96276 10.2006 10.2089 9.95841 10.5212 9.86094L16.8593 7.87506C17.0509 7.80624 17.2604 7.80624 17.452 7.87506C17.7077 7.95127 17.9219 8.12737 18.0463 8.36359C18.1707 8.59982 18.1948 8.87626 18.1132 9.1305L16.0841 15.4876C16.0033 15.7512 15.8178 15.9699 15.5711 16.0925L14.4312 16.6631C13.9403 16.8396 13.3957 16.6147 13.1719 16.143Z" fill="#161616"/>
</svg>

