<svg
      width="20"
      height="26"
      viewBox="0 0 20 26"
      fill="none"
      xmlns="http://www.w3.org/2000/svg"
    >
      <circle
        cx="10"
        cy="7"
        r="6"
        stroke="#172239"
        stroke-width="1.71429"
        stroke-linecap="round"
        stroke-linejoin="round"
      />
      <path
        fill-rule="evenodd"
        clip-rule="evenodd"
        d="M1.00002 20.9965C0.998494 20.5514 1.08775 20.1117 1.26104 19.7108C1.80484 18.4979 3.33834 17.8551 4.61082 17.564C5.52853 17.3456 6.45892 17.1997 7.39506 17.1273C9.12824 16.9576 10.8714 16.9576 12.6046 17.1273C13.5407 17.2005 14.471 17.3464 15.3889 17.564C16.6613 17.8551 18.1948 18.4373 18.7386 19.7108C19.0871 20.5281 19.0871 21.477 18.7386 22.2943C18.1948 23.5678 16.6613 24.15 15.3889 24.4289C14.4722 24.6564 13.5415 24.8064 12.6046 24.8777C11.1939 25.0111 9.77669 25.0354 8.36301 24.9505C8.03673 24.9505 7.72133 24.9505 7.39506 24.8777C6.46169 24.8073 5.53452 24.6573 4.6217 24.4289C3.33834 24.15 1.81571 23.5678 1.26104 22.2943C1.08864 21.8887 0.999468 21.4453 1.00002 20.9965Z"
        stroke="#172239"
        stroke-width="1.71429"
        stroke-linecap="round"
        stroke-linejoin="round"
      />
    </svg>