  <svg
      width="26"
      height="25"
      viewBox="0 0 26 25"
      fill="none"
      xmlns="http://www.w3.org/2000/svg"
    >
      <path
        fill-rule="evenodd"
        clip-rule="evenodd"
        d="M7.52036 0H18.4785C22.6258 0 26 3.49313 26 7.78804V17.212C26 21.5069 22.6258 25 18.4785 25C18.0001 25 17.6118 24.5979 17.6118 24.1025C17.6118 23.6071 18.0001 23.205 18.4785 23.205C21.6701 23.205 24.2667 20.5172 24.2667 17.212V9.69078H19.998C18.5964 9.69197 17.4535 10.8743 17.4524 12.3271C17.4535 13.7799 18.5964 14.9622 19.998 14.9634H21.7718C22.2502 14.9634 22.6385 15.3655 22.6385 15.8609C22.6385 16.3563 22.2502 16.7584 21.7718 16.7584H19.998C17.6396 16.7572 15.7202 14.7695 15.719 12.3271C15.7202 9.88464 17.6396 7.89694 19.998 7.89574H24.2667V7.78804C24.2667 4.48279 21.6701 1.79503 18.4785 1.79503H7.52036C4.94809 1.79503 2.78951 3.55177 2.03724 5.95831H13.4611C13.9395 5.95831 14.3277 6.36039 14.3277 6.85582C14.3277 7.35245 13.9395 7.75334 13.4611 7.75334H1.7368C1.7368 7.75932 1.73593 7.76501 1.73507 7.77069C1.7342 7.77637 1.73333 7.78206 1.73333 7.78804V17.212C1.73333 20.5172 4.32871 23.205 7.52036 23.205H13.0335C13.5119 23.205 13.9002 23.6071 13.9002 24.1025C13.9002 24.5979 13.5119 25 13.0335 25H7.52036C3.37307 25 0 21.5069 0 17.212V7.78804C0 3.49313 3.37307 0 7.52036 0ZM19.3193 12.2462C19.3193 11.7508 19.7075 11.3487 20.1859 11.3487H20.58C21.0584 11.3487 21.4466 11.7508 21.4466 12.2462C21.4466 12.7416 21.0584 13.1437 20.58 13.1437H20.1859C19.7075 13.1437 19.3193 12.7416 19.3193 12.2462Z"
        fill="#161616"
      />
    </svg>